<?xml version="1.0" encoding="UTF-8"?>
<svg xmlns="http://www.w3.org/2000/svg" xmlns:xlink="http://www.w3.org/1999/xlink" width="100px" height="100px" viewBox="0 0 100 100" version="1.1">
<g id="surface1">
<path style=" stroke:none;fill-rule:nonzero;fill:rgb(6.27451%,7.058824%,7.843137%);fill-opacity:1;" d="M 5.589844 40.605469 L 2.339844 40.605469 L 2.082031 27.621094 L 10.601562 27.621094 L 10.335938 30.589844 L 5.816406 30.359375 L 5.746094 33.65625 L 8.910156 33.179688 L 8.910156 35.855469 L 5.703125 35.691406 Z M 20.042969 40.605469 L 17.234375 40.207031 L 16.722656 38.773438 L 12.679688 38.773438 L 12.144531 40.207031 L 8.488281 40.605469 L 12.917969 27.621094 L 15.835938 27.867188 Z M 16.011719 36.773438 L 14.75 33.222656 L 13.429688 36.773438 Z M 29.832031 40.605469 L 27.65625 40.605469 L 24.335938 33.664062 L 24.125 40.207031 L 21.121094 40.605469 L 20.722656 28.015625 L 24.519531 27.621094 L 27.25 34.289062 L 26.84375 28.015625 L 29.992188 27.628906 Z M 37.453125 41 C 36.234375 41 35.195312 40.714844 34.332031 40.140625 C 33.46875 39.570312 32.8125 38.792969 32.355469 37.8125 C 31.902344 36.832031 31.671875 35.730469 31.671875 34.507812 C 31.671875 33.59375 31.820312 32.71875 32.117188 31.886719 C 32.414062 31.058594 32.875 30.324219 33.496094 29.6875 C 34.117188 29.050781 34.914062 28.546875 35.878906 28.175781 C 36.84375 27.804688 37.996094 27.621094 39.335938 27.621094 C 40.292969 27.621094 40.992188 27.753906 41.433594 28.015625 L 40.640625 31.222656 C 38.726562 31.222656 37.324219 31.609375 36.4375 32.386719 C 35.65625 33.066406 35.265625 34.003906 35.265625 35.195312 C 35.265625 35.835938 35.382812 36.449219 35.609375 37.03125 C 35.839844 37.617188 36.128906 38.09375 36.484375 38.464844 C 36.859375 38.863281 37.238281 39.0625 37.617188 39.0625 C 38.105469 39.0625 38.527344 38.769531 38.886719 38.183594 C 39.261719 37.570312 39.460938 36.605469 39.476562 35.285156 L 37.027344 35.679688 L 36.632812 33.285156 L 42.359375 32.898438 L 42.359375 34.613281 C 42.359375 36.136719 42.144531 37.363281 41.714844 38.300781 C 41.285156 39.238281 40.703125 39.921875 39.964844 40.355469 C 39.230469 40.785156 38.390625 41 37.453125 41 Z M 48.824219 40.605469 L 45.8125 40.605469 L 45.492188 30.132812 L 42.632812 30.941406 L 42.234375 27.621094 L 52.402344 27.621094 L 52.003906 30.941406 L 49.140625 30.132812 Z M 61.84375 40.605469 L 59.035156 40.207031 L 58.523438 38.773438 L 54.480469 38.773438 L 53.941406 40.207031 L 50.285156 40.605469 L 54.71875 27.621094 L 57.632812 27.867188 Z M 57.808594 36.773438 L 56.550781 33.222656 L 55.226562 36.773438 Z M 62.476562 40.605469 L 62.875 37.003906 L 64.53125 37.039062 C 65.441406 37.039062 66.214844 36.980469 66.847656 36.871094 C 67.75 36.710938 68.203125 36.425781 68.203125 36.015625 C 68.203125 35.863281 68.121094 35.734375 67.957031 35.628906 C 67.710938 35.46875 67.183594 35.289062 66.371094 35.082031 C 65.148438 34.78125 64.210938 34.4375 63.550781 34.042969 C 62.570312 33.457031 62.082031 32.621094 62.082031 31.539062 C 62.082031 30.144531 62.671875 29.113281 63.851562 28.449219 C 64.832031 27.902344 66.023438 27.628906 67.429688 27.628906 C 68.164062 27.628906 68.945312 27.746094 69.78125 27.976562 C 70.613281 28.210938 71.304688 28.535156 71.851562 28.960938 L 71.261719 31.347656 C 70.835938 31.054688 70.292969 30.804688 69.628906 30.601562 C 68.96875 30.398438 68.386719 30.296875 67.886719 30.296875 C 67.488281 30.296875 67.167969 30.351562 66.925781 30.457031 C 66.6875 30.5625 66.507812 30.703125 66.398438 30.875 C 66.285156 31.046875 66.230469 31.230469 66.230469 31.425781 C 66.230469 31.621094 66.316406 31.785156 66.492188 31.917969 C 66.664062 32.054688 66.894531 32.175781 67.1875 32.28125 C 67.476562 32.386719 67.800781 32.488281 68.160156 32.589844 C 68.59375 32.71875 69.039062 32.867188 69.5 33.039062 C 69.957031 33.207031 70.382812 33.425781 70.777344 33.691406 C 71.167969 33.953125 71.488281 34.289062 71.734375 34.699219 C 71.984375 35.105469 72.105469 35.617188 72.105469 36.226562 C 72.105469 36.972656 71.925781 37.605469 71.566406 38.121094 C 71.203125 38.636719 70.710938 39.058594 70.085938 39.386719 C 69.460938 39.710938 68.738281 39.964844 67.921875 40.140625 C 67.105469 40.320312 66.230469 40.445312 65.300781 40.507812 C 64.371094 40.574219 63.429688 40.605469 62.476562 40.605469 Z M 79.339844 40.605469 L 76.324219 40.605469 L 76.007812 30.132812 L 73.144531 30.941406 L 72.75 27.621094 L 82.914062 27.621094 L 82.519531 30.941406 L 79.65625 30.132812 Z M 84.710938 40.605469 L 83.929688 28.015625 L 87.722656 27.621094 L 86.933594 40.207031 Z M 97.917969 40.605469 C 96.964844 40.605469 96.050781 40.566406 95.171875 40.492188 C 94.292969 40.414062 93.484375 40.257812 92.746094 40.019531 C 92.003906 39.78125 91.363281 39.429688 90.816406 38.960938 C 90.269531 38.496094 89.84375 37.878906 89.535156 37.117188 C 89.226562 36.351562 89.074219 35.394531 89.074219 34.246094 C 89.074219 33.195312 89.234375 32.289062 89.558594 31.53125 C 90.660156 28.929688 93.449219 27.628906 97.917969 27.628906 L 97.917969 29.628906 C 96.78125 29.628906 95.835938 29.8125 95.082031 30.179688 C 94.324219 30.546875 93.753906 31.042969 93.375 31.667969 C 92.996094 32.292969 92.808594 32.992188 92.808594 33.761719 C 92.808594 34.417969 92.996094 34.992188 93.375 35.476562 C 93.753906 35.964844 94.320312 36.339844 95.074219 36.605469 C 95.832031 36.871094 96.777344 37.003906 97.917969 37.003906 Z M 97.917969 40.605469 "/>
<path style=" stroke:none;fill-rule:nonzero;fill:rgb(6.27451%,7.058824%,7.843137%);fill-opacity:1;" d="M 8.445312 43.449219 L 24.042969 43.449219 C 24.042969 43.449219 14.429688 55.238281 19.871094 65.941406 C 19.871094 65.941406 8.082031 64.671875 8.445312 43.449219 Z M 88.796875 43.449219 L 73.195312 43.449219 C 73.195312 43.449219 82.808594 55.238281 77.367188 65.941406 C 77.367188 65.941406 89.160156 64.671875 88.796875 43.449219 Z M 88.796875 43.449219 "/>
<path style=" stroke:none;fill-rule:nonzero;fill:rgb(99.215686%,24.705882%,20.784314%);fill-opacity:1;" d="M 8.445312 43.449219 C 8.445312 43.449219 7.574219 50.203125 10.679688 58.609375 C 11.390625 60.53125 12.878906 63.855469 14.117188 63.855469 C 15.351562 63.855469 14.765625 61.867188 15.175781 62.277344 C 15.589844 62.691406 15.878906 67.402344 16.828125 67.945312 C 17.773438 68.488281 17.554688 66.644531 17.429688 65.941406 C 17.308594 65.242188 17.519531 64.367188 17.878906 64.820312 C 18.242188 65.273438 18.359375 66.09375 18.398438 67.753906 C 18.441406 69.753906 19.597656 69.898438 19.5 68.4375 C 19.398438 66.890625 20.101562 67.265625 20.011719 66.371094 C 19.777344 64.128906 15.398438 64.472656 13.5625 56.722656 C 13.039062 54.503906 13.457031 49.488281 11.644531 51.769531 C 10.46875 53.25 11.195312 48.953125 11.179688 47.394531 C 11.152344 45.085938 9.382812 43.648438 8.445312 43.449219 Z M 78.089844 67.28125 C 77.675781 66.238281 76.261719 69.578125 77.589844 69.707031 C 78.917969 69.835938 78.359375 67.96875 78.089844 67.28125 Z M 78.089844 67.28125 "/>
<path style=" stroke:none;fill-rule:nonzero;fill:rgb(99.215686%,24.705882%,20.784314%);fill-opacity:1;" d="M 87.390625 54.984375 C 86.164062 57.839844 83.757812 60.054688 81.332031 61.855469 C 78.902344 63.65625 77.523438 63.699219 77.367188 65.941406 C 77.214844 68.1875 79.679688 65.203125 79.890625 64.410156 C 80.101562 63.613281 81.289062 62.148438 80.410156 65.457031 C 80.386719 65.550781 80.363281 65.636719 80.34375 65.722656 C 79.738281 67.171875 79.179688 69.941406 80.160156 69.960938 C 81.113281 69.976562 81.339844 68.621094 81.320312 67.289062 C 81.820312 67.042969 82.261719 66.453125 82.082031 65.941406 C 81.664062 64.753906 81.75 64.617188 84.21875 61.515625 C 86.6875 58.410156 87.96875 53.632812 87.390625 54.984375 Z M 87.390625 54.984375 "/>
<path style=" stroke:none;fill-rule:nonzero;fill:rgb(99.215686%,24.705882%,20.784314%);fill-opacity:1;" d="M 78.871094 68.96875 C 79.28125 67.925781 80.550781 72.246094 79.222656 72.375 C 77.894531 72.503906 78.597656 69.660156 78.871094 68.96875 Z M 17.707031 68.335938 C 18.085938 67.472656 19.148438 71.003906 17.972656 71.128906 C 16.792969 71.253906 17.453125 68.90625 17.707031 68.335938 Z M 17.707031 68.335938 "/>
</g>
</svg>
